<?xml version="1.0" encoding="UTF-8"?>
<svg id="Calque_2" data-name="Calque 2" xmlns="http://www.w3.org/2000/svg" viewBox="0 0 360.05 106.67">
  <defs>
    <style>
      .cls-1 {
        letter-spacing: 0em;
      }

      .cls-2 {
        letter-spacing: -.1em;
      }

      .cls-3 {
        letter-spacing: -.06em;
      }

      .cls-4 {
        letter-spacing: -.02em;
      }

      .cls-5 {
        letter-spacing: -.02em;
      }

      .cls-6, .cls-7 {
        fill: #2f2912;
      }

      .cls-8 {
        letter-spacing: 0em;
      }

      .cls-7 {
        font-family: SwitzerVariable-Medium, 'Switzer Variable';
        font-size: 35.4px;
        font-variation-settings: 'wght' 500;
        font-weight: 500;
      }

      .cls-9 {
        letter-spacing: .06em;
      }
    </style>
  </defs>
  <g id="Calque_1-2" data-name="Calque 1">
    <g>
      <g>
        <path class="cls-6" d="M79.98,1.87h-14.86c-.74,0-1.33.6-1.33,1.33v14.86c0,.74.59,1.33,1.33,1.33h14.86c.73,0,1.33-.59,1.33-1.33V3.2c0-.73-.6-1.33-1.33-1.33ZM77.42,12.4h-3.1v3.1h-3.55v-3.1h-3.1v-3.53h3.1v-3.12h3.55v3.12h3.1v3.53Z"/>
        <g>
          <path class="cls-6" d="M79.41,25.81h-14.24L41.34.41c-.5-.55-1.44-.55-1.95,0L.35,42c-.23.25-.35.59-.35.92v54.3c0,.73.59,1.33,1.33,1.33h27.54c.74,0,1.33-.6,1.33-1.33v-27.93h20.32v27.93c0,.73.6,1.33,1.33,1.33h27.56c.73,0,1.33-.6,1.33-1.33V27.14c0-.74-.6-1.33-1.33-1.33ZM78.08,28.47v11.08l-10.41-11.08h10.41ZM78.08,95.89h-24.9v-27.93c0-.73-.59-1.33-1.33-1.33h-22.98c-.73,0-1.33.6-1.33,1.33v27.93H2.66v-52.46L40.36,3.27l23.27,24.77,14.45,15.39v52.46Z"/>
          <g>
            <path class="cls-6" d="M118.82,68.35c.04.16.04.34.02.5v-.23c0-.09-.02-.18-.02-.27Z"/>
            <path class="cls-6" d="M118.82,68.35c-.02-.09-.04-.16-.09-.25-.04-.09-.07-.16-.12-.23-.05-.09-.12-.18-.21-.25l-8.88-7.87V20.89c0-.73-.59-1.33-1.33-1.33h-10.45c-.73,0-1.33.6-1.33,1.33v38.85l-8.76,7.77-.12.11c-.07.07-.14.12-.2.21-.16.23-.27.5-.27.78v28.6c0,.73.6,1.33,1.33,1.33h16.63c.53,0,1.01-.3,1.22-.78l2.34-5.18,2.57,5.21c.21.46.67.74,1.19.74h5.16c.74,0,1.33-.6,1.33-1.33v-28.6c0-.09-.02-.18-.02-.27ZM98.62,61.34c.28-.27.44-.62.44-1.01V22.22h7.79v38.11c0,.39.16.74.44,1.01l6.72,5.94h-22.11l6.72-5.94ZM116.17,95.89h-3l-3.44-7c-.23-.46-.69-.76-1.22-.74-.51,0-.98.32-1.19.78l-3.16,6.97h-14.45v-19.52h26.46v19.52ZM89.71,73.71v-3.76h26.46v3.76h-26.46Z"/>
          </g>
        </g>
      </g>
      <text class="cls-7" transform="translate(129 67.45)"><tspan class="cls-8" x="0" y="0">S</tspan><tspan class="cls-2" x="21.49" y="0">A</tspan><tspan class="cls-4" x="42.37" y="0">V</tspan><tspan x="65.84" y="0">OIR</tspan><tspan class="cls-9" x="123.86" y="0"> </tspan><tspan class="cls-3" x="132.93" y="0">F</tspan><tspan class="cls-1" x="151.19" y="0">AIRE</tspan><tspan class="cls-5" x="0" y="30.98">S</tspan><tspan x="21.03" y="30.98">WISS</tspan></text>
      <g>
        <path class="cls-6" d="M244.03,83.5v-8.84h1.46v8.84h-1.46ZM245.08,75.83v-1.17h5.04v1.17h-5.04ZM245.08,79.51v-1.16h4.55v1.16h-4.55ZM245.08,83.5v-1.17h5.04v1.17h-5.04Z"/>
        <path class="cls-6" d="M251.52,83.5v-6.93h1.39v6.93h-1.39ZM252.91,79.43h-.55c.04-.68.18-1.24.41-1.69.23-.45.54-.79.92-1.01.38-.22.82-.34,1.31-.34s.9.09,1.25.28c.35.19.62.46.81.83.19.37.29.83.29,1.37v4.63h-1.38v-4.34c0-.34-.05-.63-.16-.86-.1-.24-.26-.42-.46-.55s-.46-.2-.78-.2c-.26,0-.49.05-.7.16s-.38.25-.53.42c-.14.17-.25.37-.33.6-.07.23-.11.46-.11.7Z"/>
        <path class="cls-6" d="M258.28,77.65v-1.08h3.82v1.08h-3.82ZM259.22,81.44v-6.46h1.39v6.38c0,.4.08.69.24.88s.48.29.96.29h.27v1.01c-.07.04-.18.08-.34.1-.16.02-.34.03-.53.03-.67,0-1.17-.19-1.49-.56-.33-.37-.49-.93-.49-1.68Z"/>
        <path class="cls-6" d="M263.14,83.5v-6.93h1.39v6.93h-1.39ZM264.53,79.72h-.52c.04-.78.17-1.42.41-1.9.24-.49.54-.85.9-1.08s.76-.34,1.19-.34c.14,0,.27.02.39.05.12.03.21.08.27.14v1.22c-.1-.03-.22-.06-.34-.07s-.26-.02-.4-.02c-.33,0-.61.05-.85.14-.24.1-.44.23-.59.41-.16.18-.27.39-.34.64-.07.25-.11.52-.11.83Z"/>
        <path class="cls-6" d="M273.48,79.36l-.79.65c0-.79-.16-1.4-.47-1.82-.31-.42-.76-.64-1.34-.64s-1.04.21-1.35.64-.46,1.05-.46,1.85.16,1.4.49,1.83c.33.43.79.64,1.38.64.44,0,.81-.1,1.11-.31s.51-.53.63-.96h1.46c-.19.81-.57,1.41-1.14,1.82-.57.41-1.25.61-2.06.61-.68,0-1.26-.15-1.75-.44s-.87-.71-1.14-1.25c-.26-.55-.4-1.19-.4-1.94,0-.79.13-1.45.4-2,.26-.54.64-.95,1.12-1.24s1.05-.42,1.7-.42,1.24.15,1.72.44c.48.29.84.7,1.1,1.23.26.53.39,1.17.39,1.91v.34h-5.86v-.95h5.25Z"/>
        <path class="cls-6" d="M276.87,86.36h-1.39v-9.79h1.39v9.79ZM278.75,76.39c.62,0,1.14.15,1.58.44.44.29.77.71,1.01,1.25.23.54.35,1.19.35,1.94,0,1.18-.26,2.08-.79,2.71-.53.63-1.24.94-2.14.94-.78,0-1.4-.31-1.87-.94-.46-.62-.7-1.53-.7-2.72,0-.74.1-1.38.31-1.92s.51-.97.9-1.26c.39-.29.84-.44,1.35-.44ZM278.59,77.56c-.56,0-.99.21-1.28.63-.29.42-.44,1.03-.44,1.83s.15,1.41.45,1.84.72.64,1.27.64.96-.21,1.25-.64c.29-.42.44-1.04.44-1.85s-.15-1.39-.44-1.82c-.29-.42-.71-.64-1.25-.64Z"/>
        <path class="cls-6" d="M283.04,83.5v-6.93h1.39v6.93h-1.39ZM284.43,79.72h-.52c.04-.78.17-1.42.41-1.9.24-.49.54-.85.9-1.08s.76-.34,1.19-.34c.14,0,.27.02.39.05.12.03.21.08.27.14v1.22c-.1-.03-.22-.06-.34-.07s-.26-.02-.4-.02c-.33,0-.61.05-.85.14-.24.1-.44.23-.59.41-.16.18-.27.39-.34.64-.07.25-.11.52-.11.83Z"/>
        <path class="cls-6" d="M288.02,75.72v-1.57h1.39v1.57h-1.39ZM288.02,83.5v-6.93h1.39v6.93h-1.39Z"/>
        <path class="cls-6" d="M292.2,78.39c0,.25.08.44.23.58.16.13.37.24.64.31.27.07.56.13.88.18s.63.11.94.18c.31.07.6.18.87.31.26.13.48.32.64.57.16.24.24.57.24.97,0,.43-.12.81-.36,1.14-.24.33-.58.58-1.01.76-.43.18-.93.27-1.49.27-.83,0-1.53-.2-2.09-.59-.56-.39-.9-1.01-1.03-1.84h1.39c.07.43.26.77.57,1,.31.23.71.35,1.2.35s.82-.09,1.07-.29c.24-.19.36-.43.36-.71,0-.24-.08-.43-.23-.57-.16-.14-.37-.24-.63-.3-.26-.07-.55-.12-.87-.18-.31-.05-.62-.12-.93-.19-.31-.07-.59-.18-.85-.32-.26-.14-.47-.33-.62-.58-.16-.25-.23-.57-.23-.98,0-.36.09-.7.28-1.02s.47-.57.86-.77.87-.29,1.46-.29c.52,0,.98.08,1.39.25s.75.43,1.01.79.44.83.51,1.4h-1.39c-.08-.49-.25-.83-.52-1.03-.27-.2-.62-.31-1.07-.31-.38,0-.68.08-.89.25-.21.17-.32.38-.32.64Z"/>
        <path class="cls-6" d="M303.38,79.36l-.79.65c0-.79-.16-1.4-.47-1.82-.31-.42-.76-.64-1.34-.64s-1.04.21-1.35.64-.46,1.05-.46,1.85.16,1.4.49,1.83c.33.43.79.64,1.38.64.44,0,.81-.1,1.11-.31s.51-.53.63-.96h1.46c-.19.81-.57,1.41-1.14,1.82-.57.41-1.25.61-2.06.61-.68,0-1.26-.15-1.75-.44s-.87-.71-1.14-1.25c-.26-.55-.4-1.19-.4-1.94,0-.79.13-1.45.4-2,.26-.54.64-.95,1.12-1.24s1.05-.42,1.7-.42,1.24.15,1.72.44c.48.29.84.7,1.1,1.23.26.53.39,1.17.39,1.91v.34h-5.86v-.95h5.25Z"/>
        <path class="cls-6" d="M310.42,83.54c-.59,0-1.1-.14-1.52-.43-.42-.29-.75-.7-.98-1.23-.23-.53-.34-1.17-.34-1.91,0-1.16.25-2.05.76-2.67.51-.62,1.2-.92,2.07-.92s1.56.31,2,.93c.44.62.66,1.5.66,2.65s-.24,2.06-.72,2.67c-.48.61-1.13.91-1.94.91ZM313.8,83.72c0,.63-.13,1.16-.39,1.57s-.61.73-1.05.94-.93.31-1.49.31c-.83,0-1.53-.2-2.09-.59-.56-.39-.9-.99-1.02-1.8h1.39c.06.42.25.73.55.95s.69.33,1.15.33.84-.13,1.12-.39c.28-.26.42-.69.42-1.29v-7.18h1.39v7.15ZM310.71,82.37c.55,0,.98-.21,1.27-.62.29-.41.44-1.01.44-1.79s-.15-1.35-.45-1.77c-.3-.42-.72-.63-1.25-.63s-.98.21-1.27.62c-.29.41-.44,1.01-.44,1.8s.15,1.35.44,1.77c.29.42.71.62,1.26.62Z"/>
        <path class="cls-6" d="M320.98,79.36l-.79.65c0-.79-.16-1.4-.47-1.82-.31-.42-.76-.64-1.34-.64s-1.04.21-1.35.64-.46,1.05-.46,1.85.16,1.4.49,1.83c.33.43.79.64,1.38.64.44,0,.81-.1,1.11-.31s.51-.53.63-.96h1.46c-.19.81-.57,1.41-1.14,1.82-.57.41-1.25.61-2.06.61-.68,0-1.26-.15-1.75-.44s-.87-.71-1.14-1.25c-.26-.55-.4-1.19-.4-1.94,0-.79.13-1.45.4-2,.26-.54.64-.95,1.12-1.24s1.05-.42,1.7-.42,1.24.15,1.72.44c.48.29.84.7,1.1,1.23.26.53.39,1.17.39,1.91v.34h-5.86v-.95h5.25ZM317.69,75.72l1.14-1.57h1.64l-1.48,1.57h-1.3Z"/>
        <path class="cls-6" d="M322.98,83.5v-6.93h1.39v6.93h-1.39ZM324.37,79.43h-.55c.04-.68.18-1.24.41-1.69.23-.45.54-.79.92-1.01.38-.22.82-.34,1.31-.34s.9.09,1.25.28c.35.19.62.46.81.83.19.37.29.83.29,1.37v4.63h-1.38v-4.34c0-.34-.05-.63-.16-.86-.1-.24-.26-.42-.46-.55s-.46-.2-.78-.2c-.26,0-.49.05-.7.16s-.38.25-.53.42c-.14.17-.25.37-.33.6-.07.23-.11.46-.11.7Z"/>
        <path class="cls-6" d="M335.98,79.36l-.79.65c0-.79-.16-1.4-.47-1.82-.31-.42-.76-.64-1.34-.64s-1.04.21-1.35.64-.46,1.05-.46,1.85.16,1.4.49,1.83c.33.43.79.64,1.38.64.44,0,.81-.1,1.11-.31s.51-.53.63-.96h1.46c-.19.81-.57,1.41-1.14,1.82-.57.41-1.25.61-2.06.61-.68,0-1.26-.15-1.75-.44s-.87-.71-1.14-1.25c-.26-.55-.4-1.19-.4-1.94,0-.79.13-1.45.4-2,.26-.54.64-.95,1.12-1.24s1.05-.42,1.7-.42,1.24.15,1.72.44c.48.29.84.7,1.1,1.23.26.53.39,1.17.39,1.91v.34h-5.86v-.95h5.25ZM332.69,75.72l1.14-1.57h1.64l-1.48,1.57h-1.3Z"/>
        <path class="cls-6" d="M337.98,83.5v-6.93h1.39v6.93h-1.39ZM339.37,79.72h-.52c.04-.78.17-1.42.41-1.9.24-.49.54-.85.9-1.08s.76-.34,1.19-.34c.14,0,.27.02.39.05.12.03.21.08.27.14v1.22c-.1-.03-.22-.06-.34-.07s-.26-.02-.4-.02c-.33,0-.61.05-.85.14-.24.1-.44.23-.59.41-.16.18-.27.39-.34.64-.07.25-.11.52-.11.83Z"/>
        <path class="cls-6" d="M347.41,79.28v.95c-.71,0-1.29.04-1.74.1-.45.07-.8.17-1.05.29-.25.13-.42.27-.52.44-.1.17-.14.36-.14.57,0,.29.11.53.34.7.22.17.52.25.88.25.39,0,.74-.09,1.05-.28s.55-.44.73-.75c.18-.31.27-.65.27-1.01h.62c-.04.55-.14,1.03-.33,1.43s-.41.72-.7.98c-.28.25-.59.44-.92.55-.33.12-.66.18-.99.18-.47,0-.88-.07-1.24-.22s-.63-.37-.83-.66-.3-.66-.3-1.11c0-.48.13-.88.39-1.22s.65-.6,1.17-.78c.49-.16.99-.27,1.51-.33.52-.05,1.12-.08,1.79-.08ZM344.17,78.84h-1.39c.08-.51.24-.95.49-1.31.25-.36.59-.64,1.01-.84.42-.2.92-.29,1.49-.29.62,0,1.15.12,1.57.34.42.23.73.55.94.96.21.41.31.88.31,1.42v2.7c0,.42.02.75.06,1.01s.1.49.18.68h-1.46c-.08-.17-.13-.39-.14-.65-.02-.26-.03-.52-.03-.79v-2.94c0-.5-.12-.89-.37-1.16s-.63-.4-1.16-.4c-.45,0-.8.12-1.05.34s-.4.54-.46.93Z"/>
        <path class="cls-6" d="M350.34,83.5v-9.36h1.39v9.36h-1.39Z"/>
        <path class="cls-6" d="M358.9,79.36l-.79.65c0-.79-.16-1.4-.47-1.82-.31-.42-.76-.64-1.34-.64s-1.04.21-1.35.64-.46,1.05-.46,1.85.16,1.4.49,1.83c.33.43.79.64,1.38.64.44,0,.81-.1,1.11-.31s.51-.53.63-.96h1.46c-.19.81-.57,1.41-1.14,1.82-.57.41-1.25.61-2.06.61-.68,0-1.26-.15-1.75-.44s-.87-.71-1.14-1.25c-.26-.55-.4-1.19-.4-1.94,0-.79.13-1.45.4-2,.26-.54.64-.95,1.12-1.24s1.05-.42,1.7-.42,1.24.15,1.72.44c.48.29.84.7,1.1,1.23.26.53.39,1.17.39,1.91v.34h-5.86v-.95h5.25Z"/>
        <path class="cls-6" d="M249.56,91.5c0,.39-.08.72-.23.98-.15.26-.36.48-.62.66-.26.17-.54.32-.84.45-.3.13-.61.25-.92.38-.31.13-.59.27-.85.44-.26.17-.47.38-.62.62s-.23.56-.23.94c0,.29.07.56.21.79.14.23.36.41.64.55.29.13.63.2,1.04.2s.82-.08,1.18-.24.68-.39.94-.7.47-.69.62-1.14c.15-.45.23-.96.23-1.53h1.37c0,.62-.1,1.21-.29,1.78s-.47,1.09-.85,1.54c-.38.46-.84.81-1.39,1.07-.55.26-1.19.39-1.92.39-.67,0-1.24-.12-1.72-.34-.48-.23-.85-.55-1.1-.95-.26-.4-.38-.85-.38-1.35,0-.46.08-.85.24-1.16s.37-.58.63-.8.55-.4.86-.55c.31-.15.62-.29.93-.42s.59-.26.85-.39c.26-.13.47-.29.63-.47s.24-.4.24-.66c0-.16-.04-.32-.12-.46-.08-.14-.19-.26-.34-.35-.15-.09-.33-.14-.54-.14-.33,0-.59.09-.79.27-.2.18-.3.4-.3.66,0,.22.05.42.15.6s.26.39.47.61c.22.22.49.49.81.81l5.1,4.9h-1.83l-4.13-3.91c-.48-.46-.86-.85-1.14-1.17-.28-.32-.48-.63-.6-.92-.12-.29-.18-.6-.18-.93,0-.42.11-.78.32-1.09.21-.31.5-.55.88-.73.37-.17.8-.26,1.27-.26.51,0,.94.1,1.29.29s.61.44.78.74c.17.3.26.63.26.98Z"/>
        <path class="cls-6" d="M256.22,98.5v-6.93h1.39v6.93h-1.39ZM257.62,94.72h-.52c.04-.78.17-1.42.41-1.9.24-.49.54-.85.9-1.08s.76-.34,1.19-.34c.14,0,.27.02.39.05.12.03.21.08.27.14v1.22c-.1-.03-.22-.06-.34-.07s-.26-.02-.4-.02c-.33,0-.61.05-.85.14-.24.1-.44.23-.59.41-.16.18-.27.39-.34.64-.07.25-.11.52-.11.83Z"/>
        <path class="cls-6" d="M266.56,94.36l-.79.65c0-.79-.16-1.4-.47-1.82-.31-.42-.76-.64-1.34-.64s-1.04.21-1.35.64-.46,1.05-.46,1.85.16,1.4.49,1.83c.33.43.79.64,1.38.64.44,0,.81-.1,1.11-.31s.51-.53.63-.96h1.46c-.19.81-.57,1.41-1.14,1.82-.57.41-1.25.61-2.06.61-.68,0-1.26-.15-1.75-.44s-.87-.71-1.14-1.25c-.26-.55-.4-1.19-.4-1.94,0-.79.13-1.45.4-2,.26-.54.64-.95,1.12-1.24s1.05-.42,1.7-.42,1.24.15,1.72.44c.48.29.84.7,1.1,1.23.26.53.39,1.17.39,1.91v.34h-5.86v-.95h5.25ZM263.27,90.72l1.14-1.57h1.64l-1.48,1.57h-1.3Z"/>
        <path class="cls-6" d="M268.56,98.5v-6.93h1.39v6.93h-1.39ZM269.95,94.43h-.55c.04-.68.18-1.24.41-1.69.23-.45.54-.79.92-1.01.38-.22.82-.34,1.31-.34s.9.09,1.25.28c.35.19.62.46.81.83.19.37.29.83.29,1.37v4.63h-1.38v-4.34c0-.34-.05-.63-.16-.86-.1-.24-.26-.42-.46-.55s-.46-.2-.78-.2c-.26,0-.49.05-.7.16s-.38.25-.53.42c-.14.17-.25.37-.33.6-.07.23-.11.46-.11.7Z"/>
        <path class="cls-6" d="M278.97,98.67c-.67,0-1.24-.15-1.73-.44s-.86-.71-1.12-1.25c-.26-.55-.39-1.19-.39-1.94,0-.79.13-1.45.4-2,.26-.54.64-.95,1.13-1.24.49-.28,1.06-.42,1.71-.42s1.26.15,1.74.44.86.71,1.11,1.25c.26.54.38,1.19.38,1.96s-.13,1.43-.39,1.97-.63.95-1.12,1.23c-.49.28-1.06.42-1.73.42ZM278.97,97.5c.59,0,1.04-.21,1.35-.64.31-.42.47-1.03.47-1.82s-.16-1.41-.47-1.84c-.31-.43-.76-.64-1.35-.64s-1.04.21-1.35.64c-.31.42-.47,1.04-.47,1.85s.16,1.4.47,1.82.76.64,1.35.64Z"/>
        <path class="cls-6" d="M285.16,98.5l-2.55-6.93h1.5l1.78,5.15.27,1.07h-.21l.27-1.07,1.77-5.15h1.42l-2.55,6.93h-1.7Z"/>
        <path class="cls-6" d="M294.82,94.28v.95c-.71,0-1.29.04-1.74.1-.45.07-.8.17-1.05.29-.25.13-.42.27-.52.44-.1.17-.14.36-.14.57,0,.29.11.53.34.7.22.17.52.25.88.25.39,0,.74-.09,1.05-.28s.55-.44.73-.75c.18-.31.27-.65.27-1.01h.62c-.04.55-.14,1.03-.33,1.43s-.41.72-.7.98c-.28.25-.59.44-.92.55-.33.12-.66.18-.99.18-.47,0-.88-.07-1.24-.22s-.63-.37-.83-.66-.3-.66-.3-1.11c0-.48.13-.88.39-1.22s.65-.6,1.17-.78c.49-.16.99-.27,1.51-.33.52-.05,1.12-.08,1.79-.08ZM291.59,93.84h-1.39c.08-.51.24-.95.49-1.31.25-.36.59-.64,1.01-.84.42-.2.92-.29,1.49-.29.62,0,1.15.12,1.57.34.42.23.73.55.94.96.21.41.31.88.31,1.42v2.7c0,.42.02.75.06,1.01s.1.49.18.68h-1.46c-.08-.17-.13-.39-.14-.65-.02-.26-.03-.52-.03-.79v-2.94c0-.5-.12-.89-.37-1.16s-.63-.4-1.16-.4c-.45,0-.8.12-1.05.34s-.4.54-.46.93Z"/>
        <path class="cls-6" d="M297.01,92.65v-1.08h3.82v1.08h-3.82ZM297.94,96.44v-6.46h1.39v6.38c0,.4.08.69.24.88s.48.29.96.29h.27v1.01c-.07.04-.18.08-.34.1-.16.02-.34.03-.53.03-.67,0-1.17-.19-1.49-.56-.33-.37-.49-.93-.49-1.68Z"/>
        <path class="cls-6" d="M301.87,90.72v-1.57h1.39v1.57h-1.39ZM301.87,98.5v-6.93h1.39v6.93h-1.39Z"/>
        <path class="cls-6" d="M307.84,98.67c-.67,0-1.24-.15-1.73-.44s-.86-.71-1.12-1.25c-.26-.55-.39-1.19-.39-1.94,0-.79.13-1.45.4-2,.26-.54.64-.95,1.13-1.24.49-.28,1.06-.42,1.71-.42s1.26.15,1.74.44.86.71,1.11,1.25c.26.54.38,1.19.38,1.96s-.13,1.43-.39,1.97-.63.95-1.12,1.23c-.49.28-1.06.42-1.73.42ZM307.84,97.5c.59,0,1.04-.21,1.35-.64.31-.42.47-1.03.47-1.82s-.16-1.41-.47-1.84c-.31-.43-.76-.64-1.35-.64s-1.04.21-1.35.64c-.31.42-.47,1.04-.47,1.85s.16,1.4.47,1.82.76.64,1.35.64Z"/>
        <path class="cls-6" d="M312.42,98.5v-6.93h1.39v6.93h-1.39ZM313.81,94.43h-.55c.04-.68.18-1.24.41-1.69.23-.45.54-.79.92-1.01.38-.22.82-.34,1.31-.34s.9.09,1.25.28c.35.19.62.46.81.83.19.37.29.83.29,1.37v4.63h-1.38v-4.34c0-.34-.05-.63-.16-.86-.1-.24-.26-.42-.46-.55s-.46-.2-.78-.2c-.26,0-.49.05-.7.16s-.38.25-.53.42c-.14.17-.25.37-.33.6-.07.23-.11.46-.11.7Z"/>
      </g>
    </g>
  </g>
</svg>